<svg width="391" height="253" viewBox="0 0 391 253" fill="none" xmlns="http://www.w3.org/2000/svg">
<path d="M244.301 110.613H250.848L258.676 124.77H258.988L266.816 110.613H273.363L261.723 130.676V142.613H255.941V130.676L244.301 110.613ZM277.469 142.613V110.613H298.281V115.473H283.266V124.16H297.203V129.02H283.266V137.754H298.406V142.613H277.469ZM308.305 142.613H302.117L313.383 110.613H320.539L331.82 142.613H325.633L317.086 117.176H316.836L308.305 142.613ZM308.508 130.066H325.383V134.723H308.508V130.066ZM336.035 142.613V110.613H348.035C350.493 110.613 352.556 111.04 354.223 111.895C355.9 112.749 357.165 113.947 358.02 115.488C358.884 117.02 359.316 118.806 359.316 120.848C359.316 122.9 358.879 124.681 358.004 126.191C357.139 127.691 355.863 128.853 354.176 129.676C352.488 130.488 350.415 130.895 347.957 130.895H339.41V126.082H347.176C348.613 126.082 349.79 125.884 350.707 125.488C351.624 125.082 352.301 124.493 352.738 123.723C353.186 122.941 353.41 121.983 353.41 120.848C353.41 119.712 353.186 118.743 352.738 117.941C352.29 117.129 351.608 116.514 350.691 116.098C349.775 115.671 348.592 115.457 347.145 115.457H341.832V142.613H336.035ZM352.566 128.113L360.488 142.613H354.02L346.238 128.113H352.566ZM382.043 119.41C381.897 118.046 381.283 116.983 380.199 116.223C379.126 115.462 377.73 115.082 376.012 115.082C374.803 115.082 373.767 115.264 372.902 115.629C372.038 115.993 371.376 116.488 370.918 117.113C370.46 117.738 370.225 118.452 370.215 119.254C370.215 119.921 370.366 120.499 370.668 120.988C370.98 121.478 371.402 121.895 371.934 122.238C372.465 122.572 373.053 122.853 373.699 123.082C374.345 123.311 374.996 123.504 375.652 123.66L378.652 124.41C379.861 124.691 381.022 125.072 382.137 125.551C383.262 126.03 384.267 126.634 385.152 127.363C386.048 128.092 386.757 128.973 387.277 130.004C387.798 131.035 388.059 132.243 388.059 133.629C388.059 135.504 387.579 137.155 386.621 138.582C385.663 139.999 384.277 141.108 382.465 141.91C380.663 142.702 378.48 143.098 375.918 143.098C373.428 143.098 371.267 142.712 369.434 141.941C367.611 141.171 366.184 140.046 365.152 138.566C364.132 137.087 363.579 135.285 363.496 133.16H369.199C369.283 134.275 369.626 135.202 370.23 135.941C370.835 136.681 371.621 137.233 372.59 137.598C373.569 137.962 374.663 138.145 375.871 138.145C377.132 138.145 378.236 137.957 379.184 137.582C380.142 137.197 380.892 136.665 381.434 135.988C381.975 135.301 382.251 134.499 382.262 133.582C382.251 132.749 382.007 132.061 381.527 131.52C381.048 130.967 380.376 130.509 379.512 130.145C378.658 129.77 377.658 129.436 376.512 129.145L372.871 128.207C370.236 127.53 368.152 126.504 366.621 125.129C365.1 123.743 364.34 121.905 364.34 119.613C364.34 117.728 364.85 116.077 365.871 114.66C366.902 113.243 368.303 112.145 370.074 111.363C371.845 110.572 373.85 110.176 376.09 110.176C378.361 110.176 380.35 110.572 382.059 111.363C383.777 112.145 385.126 113.233 386.105 114.629C387.085 116.014 387.59 117.608 387.621 119.41H382.043Z" fill="white"/>
<path d="M278.025 164.072V152.988H284.715V154.179H279.367V157.924H284.368V159.115H279.367V162.882H284.801V164.072H278.025ZM287.784 152.988L290.641 157.599H290.728L293.586 152.988H295.166L291.681 158.53L295.166 164.072H293.586L290.728 159.548H290.641L287.784 164.072H286.203L289.775 158.53L286.203 152.988H287.784ZM296.913 164.072V152.988H300.658C301.528 152.988 302.239 153.145 302.791 153.459C303.346 153.769 303.758 154.189 304.025 154.72C304.292 155.25 304.425 155.842 304.425 156.495C304.425 157.148 304.292 157.742 304.025 158.276C303.761 158.81 303.354 159.235 302.802 159.553C302.249 159.867 301.542 160.024 300.68 160.024H297.995V158.833H300.637C301.232 158.833 301.71 158.73 302.071 158.525C302.432 158.319 302.693 158.041 302.856 157.691C303.022 157.338 303.105 156.939 303.105 156.495C303.105 156.051 303.022 155.654 302.856 155.304C302.693 154.954 302.43 154.68 302.065 154.482C301.701 154.28 301.218 154.179 300.615 154.179H298.255V164.072H296.913ZM306.587 164.072V152.988H313.277V154.179H307.93V157.924H312.931V159.115H307.93V162.882H313.364V164.072H306.587ZM315.696 164.072V152.988H319.442C320.308 152.988 321.019 153.136 321.574 153.432C322.13 153.724 322.541 154.126 322.808 154.639C323.075 155.151 323.209 155.734 323.209 156.387C323.209 157.04 323.075 157.619 322.808 158.124C322.541 158.629 322.132 159.026 321.58 159.315C321.028 159.6 320.322 159.742 319.463 159.742H316.432V158.53H319.42C320.012 158.53 320.488 158.443 320.849 158.27C321.213 158.097 321.477 157.852 321.639 157.534C321.805 157.213 321.888 156.831 321.888 156.387C321.888 155.943 321.805 155.555 321.639 155.223C321.473 154.891 321.208 154.635 320.844 154.455C320.479 154.271 319.997 154.179 319.398 154.179H317.039V164.072H315.696ZM320.914 159.093L323.642 164.072H322.083L319.398 159.093H320.914ZM326.788 152.988V164.072H325.445V152.988H326.788ZM329.479 164.072V152.988H336.169V154.179H330.821V157.924H335.822V159.115H330.821V162.882H336.255V164.072H329.479ZM347.378 152.988V164.072H346.079L340.038 155.369H339.93V164.072H338.588V152.988H339.887L345.949 161.712H346.057V152.988H347.378ZM358.983 156.452H357.641C357.561 156.066 357.422 155.726 357.224 155.434C357.029 155.142 356.791 154.897 356.509 154.698C356.232 154.496 355.923 154.344 355.584 154.243C355.245 154.142 354.891 154.092 354.523 154.092C353.852 154.092 353.244 154.262 352.699 154.601C352.158 154.94 351.727 155.44 351.406 156.1C351.088 156.76 350.929 157.57 350.929 158.53C350.929 159.49 351.088 160.3 351.406 160.96C351.727 161.62 352.158 162.12 352.699 162.459C353.244 162.799 353.852 162.968 354.523 162.968C354.891 162.968 355.245 162.918 355.584 162.817C355.923 162.716 356.232 162.566 356.509 162.367C356.791 162.165 357.029 161.918 357.224 161.626C357.422 161.33 357.561 160.991 357.641 160.608H358.983C358.882 161.175 358.698 161.682 358.431 162.129C358.164 162.577 357.832 162.957 357.435 163.271C357.038 163.582 356.592 163.818 356.098 163.98C355.607 164.143 355.082 164.224 354.523 164.224C353.578 164.224 352.737 163.993 352.001 163.531C351.265 163.069 350.686 162.412 350.264 161.561C349.841 160.709 349.63 159.699 349.63 158.53C349.63 157.361 349.841 156.351 350.264 155.499C350.686 154.648 351.265 153.991 352.001 153.529C352.737 153.067 353.578 152.836 354.523 152.836C355.082 152.836 355.607 152.917 356.098 153.08C356.592 153.242 357.038 153.48 357.435 153.794C357.832 154.105 358.164 154.483 358.431 154.931C358.698 155.375 358.882 155.882 358.983 156.452ZM361.152 164.072V152.988H367.842V154.179H362.494V157.924H367.495V159.115H362.494V162.882H367.928V164.072H361.152Z" fill="white"/>
<path d="M340.665 55.8047C338.951 57.02 335.218 60.9916 334.227 59.9618C329.797 51.9928 331.012 51.6873 320.429 38.5335C309.229 24.6142 294.611 13.8384 278.001 7.25882C261.391 0.679255 243.359 -1.47896 225.665 0.995061C207.972 3.46908 191.223 10.4907 177.055 21.3739C162.887 32.257 151.785 46.6294 144.833 63.0867C137.881 79.544 135.317 97.5233 137.392 115.268C139.467 133.012 146.11 149.915 156.671 164.325C166.903 178.285 181.06 189.639 196.957 197.087C197.462 197.324 196.727 199.47 195.925 200.528L236.848 159.984C234.942 161.353 228.952 165.955 226.972 165.654C212.525 163.46 194.262 149.278 188.3 141.143C181.748 132.205 177.628 121.72 176.341 110.713C175.054 99.7067 176.644 88.5544 180.957 78.3461C185.269 68.1378 192.155 59.2228 200.944 52.4721C209.732 45.7214 220.121 41.366 231.096 39.8314C242.071 38.2968 253.065 39.79 263.368 43.8712C273.67 47.9524 282.622 54.8516 289.569 63.4856C296.062 71.5553 300.269 80.9179 302.275 91.0574C302.538 92.3852 301.699 94.6836 300.728 95.6517L340.665 55.8047Z" fill="white"/>
<path d="M56.2212 149.049C56.2212 149.601 56.6721 150.05 57.2243 150.044C71.9086 149.891 81.6466 146.39 93.4786 142.284C105.578 138.084 115.921 130.557 123.056 120.759C130.19 110.961 133.757 99.3855 133.256 87.6571C132.755 75.9288 128.212 64.6371 120.263 55.368C112.314 46.099 103.339 39.4382 90.9173 36.0979C78.496 32.7576 63.2526 32.9056 51.008 36.7443C38.7635 40.5831 28.1539 47.7998 20.6694 57.3807C13.3974 66.6897 9.43042 77.7763 9.28169 89.1637C9.27448 89.7155 9.72543 90.1602 10.2772 90.1572L50.1955 89.9423C50.7482 89.9394 51.1906 89.4881 51.2205 88.9361C51.4075 85.4853 52.6757 82.1463 54.8876 79.3147C57.3128 76.2103 60.7506 73.8719 64.7181 72.628C68.6857 71.3842 72.9837 71.2973 77.0085 72.3796C81.0334 73.462 85.1751 75.2043 87.7507 78.2077C90.3263 81.2111 92.7575 86.1366 92.9198 89.9369C93.0821 93.7372 92.0215 99.2914 89.7098 102.466C81.0391 114.373 71.3555 116.003 57.1368 117.279C56.6204 117.325 56.2212 117.758 56.2212 118.276V149.049Z" fill="white"/>
<path d="M0.999999 184.069C0.447714 184.069 -0.00085244 184.515 0.00856471 185.068C0.225109 197.765 4.54146 212.682 12.23 223.138C20.121 233.871 31.3369 242.235 44.4593 247.175C57.5817 252.114 72.0212 253.407 85.9518 250.889C99.8825 248.37 112.679 242.155 122.722 233.028C132.765 223.901 139.605 212.272 142.376 199.613C145.147 186.953 143.725 173.831 138.29 161.906C132.854 149.981 123.649 139.789 111.84 132.618C100.03 125.447 86.1451 121.619 71.9415 121.619L57.4199 150.035C87.1521 150.035 97.8535 162.706 102.956 173.901C107.7 184.309 102.336 199.899 94.3016 207.201C89.8792 211.22 84.2447 213.956 78.1106 215.065C71.9766 216.174 65.6185 215.605 59.8403 213.43C48.8047 209.276 40.3806 197.2 39.938 185.068C39.9179 184.517 39.472 184.069 38.9198 184.069H0.999999Z" fill="white"/>
</svg>
