<svg width="600" height="135" viewBox="0 0 600 135" fill="none" xmlns="http://www.w3.org/2000/svg">
<path d="M64.1802 46.9453C54.6847 46.9453 46.9492 54.6808 46.9492 64.1763C46.9492 73.6718 54.6847 81.4073 64.1802 81.4073H105.989L117.244 46.9453H64.1802Z" fill="url(#paint0_linear_300_350)"/>
<path d="M64.1763 104.88C41.7268 104.88 23.4726 86.6257 23.4726 64.1763C23.4726 41.7269 41.7268 23.4726 64.1763 23.4726H124.915L132.589 0H64.1763C28.732 0 0 28.732 0 64.1763C0 99.6206 28.732 128.353 64.1763 128.353H90.6572L98.3313 104.88H64.1763Z" fill="url(#paint1_linear_300_350)"/>
<path d="M164.489 112.694C164.489 114.986 163.118 116.746 160.847 117.319C163.61 117.831 165.288 119.816 165.288 122.599C165.288 126.18 162.341 128.349 157.573 128.349H148.036V107.496H157.306C161.747 107.496 164.489 109.502 164.489 112.715V112.694ZM160.417 113.41C160.417 111.835 159.169 110.914 157.102 110.934H152.047V115.989H157.102C159.148 115.989 160.417 115.027 160.417 113.39V113.41ZM161.154 122.087C161.154 120.389 159.639 119.345 157.102 119.386H152.047V124.891H157.102C159.639 124.911 161.154 123.868 161.154 122.087Z" fill="#939598"/>
<path d="M182.988 112.406V128.348H179.079V125.401C177.974 127.509 176.071 128.491 173.534 128.491C169.952 128.491 167.763 126.138 167.763 122.393V112.406H171.671V121.247C171.671 123.477 172.961 124.828 175.089 124.828C177.586 124.808 179.079 122.823 179.079 120.265V112.406H182.988Z" fill="#939598"/>
<path d="M191.857 115.271C190.609 115.271 189.708 115.68 189.708 116.662C189.708 119.343 198.14 117.931 198.14 123.661C198.14 126.915 195.254 128.491 191.857 128.491C189.442 128.491 186.946 127.713 185.268 126.26L186.618 123.559C188.071 124.807 190.281 125.524 192 125.524C193.351 125.524 194.354 125.073 194.354 124.03C194.354 121.083 186.045 122.699 186.066 117.031C186.066 113.757 188.869 112.242 192.082 112.242C194.17 112.242 196.339 112.877 197.915 113.941L196.523 116.744C194.968 115.823 193.208 115.291 191.837 115.291L191.857 115.271Z" fill="#939598"/>
<path d="M204.703 107.844C204.703 109.092 203.844 109.993 202.616 109.993C201.388 109.993 200.528 109.092 200.528 107.844C200.528 106.596 201.388 105.695 202.616 105.695C203.844 105.695 204.703 106.596 204.703 107.844ZM204.56 112.408V128.349H200.692V112.408H204.56Z" fill="#939598"/>
<path d="M224.102 118.381V128.327H220.193V119.507C220.193 117.276 218.843 115.905 216.653 115.905C214.033 115.926 212.478 117.87 212.478 120.489V128.327H208.61V112.385H212.478V115.373C213.604 113.265 215.609 112.283 218.188 112.242C221.851 112.242 224.081 114.596 224.081 118.381H224.102Z" fill="#939598"/>
<path d="M241.964 121.738H230.197C230.708 124.009 232.427 125.38 234.76 125.38C236.397 125.38 237.912 124.746 239.058 123.6L241.145 125.769C239.569 127.488 237.236 128.512 234.433 128.512C229.48 128.512 226.247 125.237 226.247 120.449C226.247 115.66 229.583 112.324 234.351 112.324C239.958 112.324 242.373 115.987 241.984 121.779L241.964 121.738ZM238.464 119.139C238.382 116.785 236.786 115.292 234.371 115.292C231.957 115.292 230.463 116.785 230.115 119.139H238.464Z" fill="#939598"/>
<path d="M249.356 115.271C248.108 115.271 247.207 115.68 247.207 116.662C247.207 119.343 255.639 117.931 255.639 123.661C255.639 126.915 252.753 128.491 249.356 128.491C246.941 128.491 244.445 127.713 242.767 126.26L244.117 123.559C245.57 124.807 247.78 125.524 249.499 125.524C250.85 125.524 251.853 125.073 251.853 124.03C251.853 121.083 243.544 122.699 243.565 117.031C243.565 113.757 246.368 112.242 249.581 112.242C251.669 112.242 253.838 112.877 255.414 113.941L254.022 116.744C252.467 115.823 250.707 115.291 249.336 115.291L249.356 115.271Z" fill="#939598"/>
<path d="M262.966 115.271C261.717 115.271 260.817 115.68 260.817 116.662C260.817 119.343 269.248 117.931 269.248 123.661C269.248 126.915 266.363 128.491 262.966 128.491C260.551 128.491 258.054 127.713 256.376 126.26L257.727 123.559C259.18 124.807 261.39 125.524 263.109 125.524C264.459 125.524 265.462 125.073 265.462 124.03C265.462 121.083 257.154 122.699 257.174 117.031C257.174 113.757 259.978 112.242 263.191 112.242C265.278 112.242 267.447 112.877 269.023 113.941L267.631 116.744C266.076 115.823 264.316 115.291 262.945 115.291L262.966 115.271Z" fill="#939598"/>
<path d="M294.851 107.496V111.036H288.363V128.349H284.352V111.036H277.865V107.496H294.871H294.851Z" fill="#939598"/>
<path d="M308.99 121.738H297.223C297.735 124.009 299.454 125.38 301.787 125.38C303.424 125.38 304.938 124.746 306.084 123.6L308.171 125.769C306.596 127.488 304.263 128.512 301.459 128.512C296.507 128.512 293.273 125.237 293.273 120.449C293.273 115.66 296.609 112.324 301.377 112.324C306.985 112.324 309.399 115.987 309.011 121.779L308.99 121.738ZM305.491 119.139C305.409 116.785 303.813 115.292 301.398 115.292C298.983 115.292 297.489 116.785 297.141 119.139H305.491Z" fill="#939598"/>
<path d="M318.399 115.682C315.841 115.682 314.061 117.585 314.061 120.389C314.061 123.193 315.841 125.157 318.399 125.157C320.241 125.157 321.735 124.523 322.697 123.275L325.112 125.26C323.72 127.286 321.326 128.472 318.195 128.472C313.427 128.472 310.152 125.198 310.152 120.41C310.152 115.621 313.468 112.285 318.256 112.285C321.183 112.285 323.495 113.349 324.928 115.212L322.574 117.442C321.551 116.337 320.159 115.682 318.399 115.682Z" fill="#939598"/>
<path d="M343.347 118.382V128.328H339.438V119.508C339.438 117.277 338.108 115.906 335.898 115.906C333.278 115.927 331.703 117.871 331.703 120.49V128.328H327.835V106.227H331.703V115.436C332.828 113.266 334.834 112.284 337.453 112.243C341.116 112.243 343.347 114.596 343.347 118.382Z" fill="#939598"/>
<path d="M362.443 118.381V128.327H358.534V119.507C358.534 117.276 357.183 115.905 354.994 115.905C352.374 115.926 350.819 117.87 350.819 120.489V128.327H346.951V112.385H350.819V115.373C351.944 113.265 353.95 112.283 356.528 112.242C360.192 112.242 362.422 114.596 362.422 118.381H362.443Z" fill="#939598"/>
<path d="M381.371 120.369C381.371 125.219 377.973 128.493 373.001 128.493C368.028 128.493 364.569 125.219 364.569 120.369C364.569 115.519 367.966 112.285 373.001 112.285C378.035 112.285 381.371 115.539 381.371 120.369ZM368.478 120.41C368.478 123.275 370.32 125.239 373.001 125.239C375.681 125.239 377.462 123.275 377.462 120.41C377.462 117.545 375.62 115.58 373.001 115.58C370.381 115.58 368.478 117.545 368.478 120.41Z" fill="#939598"/>
<path d="M388.017 106.246V128.348H384.149V106.246H388.017Z" fill="#939598"/>
<path d="M407.589 120.369C407.589 125.219 404.192 128.493 399.219 128.493C394.247 128.493 390.788 125.219 390.788 120.369C390.788 115.519 394.185 112.285 399.219 112.285C404.254 112.285 407.589 115.539 407.589 120.369ZM394.697 120.41C394.697 123.275 396.539 125.239 399.219 125.239C401.9 125.239 403.681 123.275 403.681 120.41C403.681 117.545 401.839 115.58 399.219 115.58C396.6 115.58 394.697 117.545 394.697 120.41Z" fill="#939598"/>
<path d="M424.779 112.409V126.837C424.779 131.4 421.463 134.286 416.429 134.286C413.871 134.286 411.579 133.447 409.696 132.178L411.252 129.374C412.705 130.438 414.321 131.032 416.224 131.032C419.089 131.032 420.911 129.456 420.911 126.918V125.036C419.847 126.652 418.107 127.532 415.856 127.532C411.62 127.532 408.775 124.442 408.775 119.838C408.775 115.233 411.599 112.266 415.754 112.266C418.046 112.245 419.826 113.166 420.931 114.763V112.389H424.799L424.779 112.409ZM420.911 119.94C420.911 117.259 419.192 115.377 416.675 115.377C414.158 115.377 412.439 117.28 412.418 119.94C412.439 122.621 414.137 124.504 416.675 124.504C419.212 124.504 420.911 122.621 420.911 119.94Z" fill="#939598"/>
<path d="M429.99 134.304C428.435 134.304 427.248 133.854 426.02 132.872L427.698 129.925C428.435 130.498 429.049 130.723 429.745 130.723C430.768 130.723 431.566 130.211 432.057 129.106L432.528 128.062L425.938 112.387H429.95L434.472 123.97L438.606 112.387H442.515L435.373 130.314C434.349 132.974 432.487 134.284 429.95 134.284L429.99 134.304Z" fill="#939598"/>
<path d="M459.239 110.955C457.357 110.955 456.149 111.63 456.149 112.92C456.149 117.156 467.343 114.864 467.323 122.333C467.323 126.242 463.926 128.493 459.342 128.493C456.006 128.493 452.752 127.163 450.521 125.157L452.2 121.781C454.348 123.684 457.172 124.85 459.403 124.85C461.634 124.85 462.984 124.011 462.984 122.558C462.984 118.22 451.79 120.676 451.79 113.268C451.79 109.625 454.921 107.312 459.587 107.312C462.35 107.312 465.133 108.213 467.118 109.523L465.501 112.981C463.271 111.63 460.856 110.955 459.239 110.955Z" fill="#939598"/>
<path d="M487.131 120.45C487.131 125.239 484.185 128.493 479.662 128.493C477.247 128.493 475.405 127.511 474.239 125.751V134.121H470.371V112.408H474.239V115.027C475.364 113.267 477.227 112.285 479.601 112.285C484.103 112.285 487.131 115.559 487.131 120.45ZM483.202 120.328C483.202 117.524 481.36 115.539 478.741 115.539C476.122 115.539 474.239 117.545 474.239 120.328C474.239 123.111 476.081 125.157 478.741 125.157C481.401 125.157 483.202 123.152 483.202 120.328Z" fill="#939598"/>
<path d="M504.019 121.738H492.252C492.764 124.009 494.483 125.38 496.816 125.38C498.453 125.38 499.967 124.746 501.113 123.6L503.201 125.769C501.625 127.488 499.292 128.512 496.488 128.512C491.536 128.512 488.303 125.237 488.303 120.449C488.303 115.66 491.638 112.324 496.407 112.324C502.014 112.324 504.429 115.987 504.04 121.779L504.019 121.738ZM500.499 119.139C500.418 116.785 498.821 115.292 496.407 115.292C493.992 115.292 492.498 116.785 492.15 119.139H500.499Z" fill="#939598"/>
<path d="M513.425 115.682C510.867 115.682 509.086 117.585 509.086 120.389C509.086 123.193 510.867 125.157 513.425 125.157C515.267 125.157 516.761 124.523 517.722 123.275L520.137 125.26C518.746 127.286 516.351 128.472 513.22 128.472C508.452 128.472 505.178 125.198 505.178 120.41C505.178 115.621 508.493 112.285 513.282 112.285C516.208 112.285 518.521 113.349 519.953 115.212L517.6 117.442C516.576 116.337 515.185 115.682 513.425 115.682Z" fill="#939598"/>
<path d="M526.713 107.844C526.713 109.092 525.853 109.993 524.625 109.993C523.398 109.993 522.538 109.092 522.538 107.844C522.538 106.596 523.398 105.695 524.625 105.695C525.853 105.695 526.713 106.596 526.713 107.844ZM526.57 112.408V128.349H522.702V112.408H526.57Z" fill="#939598"/>
<path d="M540.03 128.351V126.406C538.925 127.798 537.144 128.514 534.873 128.514C531.455 128.514 529.307 126.407 529.307 123.562C529.307 120.717 531.476 118.794 535.364 118.773H540.01V118.364C540.01 116.522 538.782 115.417 536.408 115.417C534.914 115.417 533.318 115.929 531.681 116.911L530.289 114.23C532.581 112.941 534.361 112.266 537.288 112.266C541.463 112.266 543.816 114.373 543.836 117.934V128.351H540.05H540.03ZM539.989 122.805V121.372H535.978C533.932 121.372 532.97 121.945 532.97 123.337C532.97 124.728 534.034 125.547 535.794 125.547C538.024 125.547 539.784 124.36 539.989 122.805Z" fill="#939598"/>
<path d="M551.47 106.246V128.348H547.603V106.246H551.47Z" fill="#939598"/>
<path d="M559.715 107.844C559.715 109.092 558.855 109.993 557.627 109.993C556.4 109.993 555.54 109.092 555.54 107.844C555.54 106.596 556.4 105.695 557.627 105.695C558.855 105.695 559.715 106.596 559.715 107.844ZM559.572 112.408V128.349H555.704V112.408H559.572Z" fill="#939598"/>
<path d="M568.39 115.271C567.142 115.271 566.242 115.68 566.242 116.662C566.242 119.343 574.673 117.931 574.673 123.661C574.673 126.915 571.787 128.491 568.39 128.491C565.976 128.491 563.479 127.713 561.801 126.26L563.151 123.559C564.604 124.807 566.815 125.524 568.534 125.524C569.884 125.524 570.887 125.073 570.887 124.03C570.887 121.083 562.578 122.699 562.599 117.031C562.599 113.757 565.403 112.242 568.615 112.242C570.703 112.242 572.872 112.877 574.448 113.941L573.056 116.744C571.501 115.823 569.741 115.291 568.37 115.291L568.39 115.271Z" fill="#939598"/>
<path d="M586.541 127.367C585.313 128.103 583.942 128.533 582.551 128.533C579.952 128.533 577.864 127.039 577.864 123.765V115.907H575.634V113.083H577.864V108.703H581.712V113.083H586.275V115.907H581.712V123.09C581.712 124.604 582.346 125.116 583.39 125.116C584.045 125.116 584.781 124.87 585.661 124.461L586.562 127.387L586.541 127.367Z" fill="#939598"/>
<path d="M593.606 115.271C592.358 115.271 591.457 115.68 591.457 116.662C591.457 119.343 599.889 117.931 599.889 123.661C599.889 126.915 597.003 128.491 593.606 128.491C591.191 128.491 588.695 127.713 587.017 126.26L588.367 123.559C589.82 124.807 592.03 125.524 593.749 125.524C595.1 125.524 596.103 125.073 596.103 124.03C596.103 121.083 587.794 122.699 587.815 117.031C587.815 113.757 590.618 112.242 593.831 112.242C595.919 112.242 598.088 112.877 599.664 113.941L598.272 116.744C596.717 115.823 594.957 115.291 593.586 115.291L593.606 115.271Z" fill="#939598"/>
<path d="M161.601 75.9229C156.587 73.2216 152.658 69.4971 149.793 64.7084C146.928 59.9402 145.495 54.5376 145.495 48.5006C145.495 42.4636 146.928 37.0815 149.793 32.2928C152.658 27.5246 156.587 23.7797 161.601 21.0784C166.614 18.3771 172.242 17.0469 178.504 17.0469C183.784 17.0469 188.532 17.9678 192.788 19.83C197.045 21.6923 200.626 24.3527 203.512 27.8316L194.466 36.1811C190.353 31.4333 185.257 29.0595 179.179 29.0595C175.414 29.0595 172.058 29.878 169.111 31.5357C166.164 33.1933 163.852 35.4853 162.194 38.4526C160.536 41.3995 159.718 44.7556 159.718 48.5211C159.718 52.2865 160.536 55.6427 162.194 58.5896C163.852 61.5364 166.144 63.8489 169.111 65.5065C172.078 67.1641 175.414 67.9827 179.179 67.9827C185.257 67.9827 190.353 65.5884 194.466 60.7792L203.512 69.1287C200.606 72.669 197.024 75.3499 192.747 77.2121C188.47 79.0744 183.682 79.9953 178.422 79.9953C172.222 79.9953 166.614 78.6446 161.621 75.9638L161.601 75.9229Z" fill="white"/>
<path d="M209.859 14.4688H223.407V78.9315H209.859V14.4688Z" fill="white"/>
<path d="M279.357 59.3665H243.995C244.629 62.2725 246.143 64.544 248.517 66.2221C250.891 67.9002 253.838 68.7392 257.378 68.7392C259.814 68.7392 261.962 68.3709 263.845 67.6546C265.728 66.9383 267.488 65.7923 269.104 64.2166L276.308 72.034C271.908 77.0682 265.482 79.5853 257.03 79.5853C251.751 79.5853 247.105 78.5621 243.053 76.4952C239.001 74.4488 235.87 71.5838 233.681 67.9411C231.47 64.2984 230.386 60.1442 230.386 55.5192C230.386 50.8943 231.47 46.8219 233.64 43.1383C235.809 39.4547 238.797 36.5897 242.583 34.5432C246.368 32.4968 250.625 31.4531 255.311 31.4531C259.998 31.4531 264.029 32.4354 267.733 34.4C271.437 36.3646 274.343 39.1887 276.472 42.8722C278.579 46.5558 279.644 50.8124 279.644 55.6829C279.644 55.8467 279.562 57.0745 279.377 59.3256L279.357 59.3665ZM247.637 44.3457C245.55 46.0852 244.281 48.459 243.81 51.4673H266.833C266.362 48.5204 265.093 46.1465 263.006 44.3866C260.919 42.6267 258.381 41.7467 255.352 41.7467C252.324 41.7467 249.704 42.6062 247.617 44.3457H247.637Z" fill="white"/>
<path d="M320.688 36.6511C324.576 40.0891 326.5 45.287 326.5 52.2449V78.91H313.812V73.0981C311.254 77.4366 306.506 79.6058 299.568 79.6058C295.987 79.6058 292.856 78.9919 290.237 77.7845C287.597 76.5771 285.591 74.899 284.2 72.7502C282.808 70.6015 282.112 68.1662 282.112 65.4444C282.112 61.106 283.749 57.6885 287.024 55.1918C290.298 52.6951 295.353 51.4468 302.188 51.4468H312.952C312.952 48.4999 312.052 46.2284 310.251 44.6322C308.45 43.036 305.769 42.2379 302.167 42.2379C299.671 42.2379 297.235 42.6267 294.821 43.4043C292.426 44.182 290.38 45.2461 288.702 46.5763L283.831 37.1013C286.369 35.3004 289.439 33.9089 292.999 32.9266C296.56 31.9443 300.223 31.4531 303.989 31.4531C311.233 31.4531 316.779 33.1721 320.667 36.6306L320.688 36.6511ZM309.146 68.8825C310.947 67.8183 312.215 66.2426 312.973 64.1552V59.387H303.682C298.115 59.387 295.332 61.2083 295.332 64.851C295.332 66.5905 296.008 67.9616 297.379 68.9848C298.729 70.008 300.612 70.4991 302.986 70.4991C305.36 70.4991 307.365 69.9671 309.146 68.8825Z" fill="white"/>
<path d="M356.092 33.2356C358.835 32.0691 362.007 31.4961 365.608 31.4961V43.9998C364.094 43.877 363.091 43.8361 362.559 43.8361C358.671 43.8361 355.642 44.9207 353.432 47.0899C351.222 49.2592 350.137 52.513 350.137 56.8719V78.9325H336.59V32.1919H349.523V38.3517C351.14 36.1006 353.33 34.3816 356.092 33.2356Z" fill="white"/>
<path d="M419.293 67.6361V78.9325H372.204V18.1328H418.147V29.4291H386.181V42.6287H414.402V53.5771H386.181V67.6566H419.272L419.293 67.6361Z" fill="white"/>
<path d="M474.623 14.4688V78.9315H461.69V73.5494C458.334 77.6014 453.463 79.6273 447.099 79.6273C442.699 79.6273 438.708 78.645 435.148 76.6805C431.587 74.7159 428.783 71.9123 426.757 68.2491C424.731 64.6065 423.708 60.3704 423.708 55.5612C423.708 50.7521 424.731 46.516 426.757 42.8733C428.783 39.2306 431.587 36.4066 435.148 34.442C438.708 32.4774 442.699 31.4951 447.099 31.4951C453.054 31.4951 457.72 33.3778 461.076 37.1433V14.4688H474.623ZM457.945 64.9748C460.196 62.6214 461.342 59.4904 461.342 55.5408C461.342 51.5911 460.216 48.4601 457.945 46.1067C455.694 43.7533 452.849 42.5868 449.432 42.5868C446.014 42.5868 443.088 43.7533 440.837 46.1067C438.586 48.4601 437.44 51.5911 437.44 55.5408C437.44 59.4904 438.565 62.6214 440.837 64.9748C443.108 67.3282 445.953 68.4947 449.432 68.4947C452.911 68.4947 455.694 67.3282 457.945 64.9748Z" fill="white"/>
<path d="M533.176 32.1861V71.1093C533.176 79.6839 530.946 86.0483 526.485 90.2231C522.023 94.3978 515.516 96.4852 506.941 96.4852C502.418 96.4852 498.141 95.9326 494.089 94.8275C490.038 93.7225 486.681 92.1263 484.021 90.0594L489.403 80.3388C491.368 81.9555 493.864 83.2447 496.873 84.2065C499.881 85.1684 502.889 85.639 505.918 85.639C510.604 85.639 514.063 84.5749 516.293 82.4671C518.524 80.3592 519.629 77.1463 519.629 72.8693V70.8638C516.089 74.752 511.177 76.6757 504.854 76.6757C500.577 76.6757 496.648 75.7343 493.087 73.8516C489.526 71.9688 486.702 69.3289 484.614 65.9114C482.527 62.4938 481.483 58.5647 481.483 54.1035C481.483 49.6422 482.527 45.7131 484.614 42.2955C486.702 38.878 489.526 36.238 493.087 34.3553C496.648 32.4726 500.577 31.5312 504.854 31.5312C511.627 31.5312 516.784 33.7619 520.325 38.2231V32.227H533.176V32.1861ZM516.375 62.3711C518.667 60.2632 519.813 57.5005 519.813 54.083C519.813 50.6654 518.667 47.9027 516.375 45.7949C514.083 43.6871 511.157 42.6229 507.555 42.6229C503.953 42.6229 501.006 43.6871 498.694 45.7949C496.381 47.9027 495.215 50.6654 495.215 54.083C495.215 57.5005 496.381 60.2632 498.694 62.3711C501.006 64.4789 503.974 65.543 507.555 65.543C511.136 65.543 514.083 64.4789 516.375 62.3711Z" fill="white"/>
<path d="M589.103 59.3665H553.741C554.375 62.2725 555.889 64.544 558.263 66.2221C560.637 67.9002 563.584 68.7392 567.124 68.7392C569.56 68.7392 571.708 68.3709 573.591 67.6546C575.474 66.9383 577.234 65.7923 578.85 64.2166L586.054 72.034C581.654 77.0682 575.228 79.5853 566.776 79.5853C561.497 79.5853 556.851 78.5621 552.799 76.4952C548.747 74.4488 545.616 71.5838 543.427 67.9411C541.216 64.2984 540.132 60.1442 540.132 55.5192C540.132 50.8943 541.216 46.8219 543.386 43.1383C545.555 39.4547 548.543 36.5897 552.329 34.5432C556.114 32.4968 560.371 31.4531 565.057 31.4531C569.744 31.4531 573.775 32.4354 577.479 34.4C581.183 36.3646 584.089 39.1887 586.218 42.8722C588.325 46.5558 589.39 50.8124 589.39 55.6829C589.39 55.8467 589.308 57.0745 589.124 59.3256L589.103 59.3665ZM557.404 44.3457C555.316 46.0852 554.048 48.459 553.577 51.4673H576.599C576.129 48.5204 574.86 46.1465 572.773 44.3866C570.685 42.6267 568.148 41.7467 565.119 41.7467C562.09 41.7467 559.471 42.6062 557.383 44.3457H557.404Z" fill="white"/>
<defs>
<linearGradient id="paint0_linear_300_350" x1="46.9492" y1="64.1763" x2="117.244" y2="64.1763" gradientUnits="userSpaceOnUse">
<stop stop-color="#28346B"/>
<stop offset="1" stop-color="#449294"/>
</linearGradient>
<linearGradient id="paint1_linear_300_350" x1="0" y1="64.1763" x2="132.589" y2="64.1763" gradientUnits="userSpaceOnUse">
<stop stop-color="#28346B"/>
<stop offset="1" stop-color="#449294"/>
</linearGradient>
</defs>
</svg>
